<svg xmlns="http://www.w3.org/2000/svg" version="1.0" width="334.000000pt" height="200.000000pt" viewBox="0 0 334.000000 200.000000" preserveAspectRatio="xMidYMid meet">

<g transform="translate(0.000000,200.000000) scale(0.100000,-0.100000)" fill="#ffffff" stroke="none">
<path d="M1485 1102 c-137 -136 -299 -294 -360 -350 l-109 -102 44 0 c66 0 177 26 235 55 37 18 128 103 360 335 l310 310 -115 0 -115 0 -250 -248z" fill="#ffffff"/>
<path d="M1873 1188 l-163 -162 0 -58 0 -58 -57 0 -57 0 -87 -85 -86 -85 143 0 144 0 0 -45 0 -45 219 0 c274 0 311 11 368 108 22 37 27 58 27 111 0 42 -6 78 -17 98 -16 29 -16 34 0 70 24 57 21 160 -6 209 -39 69 -109 104 -211 104 l-55 0 -162 -162z m261 -34 c23 -60 -5 -76 -132 -72 l-97 3 -2 43 -3 42 114 0 c95 0 115 -3 120 -16z m4 -281 c5 -46 -19 -54 -136 -51 l-97 3 -3 43 -3 43 118 -3 118 -3 3 -32z" fill="#ffffff"/>
</g>
</svg>